<svg xmlns="http://www.w3.org/2000/svg" viewBox="0 0 1080 1080"><defs><style>.cls-1{fill:#fff;}.cls-2{fill:#231f20;}</style></defs><g id="Layer_2" data-name="Layer 2"><g id="Layer_1-2" data-name="Layer 1"><rect class="cls-1" width="1080" height="1080"/><path class="cls-2" d="M803.13,351.43a12,12,0,0,0-.1-1.89,74.45,74.45,0,0,0-74.46-72.67H601.73a205.34,205.34,0,0,1,60.14,145.2V533.84L418,290h0a44.81,44.81,0,0,0-31.68-13.12H321.67a44.8,44.8,0,0,0-44.8,44.8v406.9a74.56,74.56,0,0,0,74.56,74.56H478.27A205.68,205.68,0,0,1,418,657.7v-168L661.87,733.44l54.86,54.86a50.59,50.59,0,0,0,35.79,14.83h0a50.61,50.61,0,0,0,50.61-50.61V675.09L803,478.17l.1.1Z"/></g></g></svg>