<svg xmlns="http://www.w3.org/2000/svg" viewBox="0 0 153.38 153.38"><defs><style>.cls-1{fill:#00aeef;stroke:#231f20;stroke-miterlimit:10;stroke-width:5px;}</style></defs><g id="Layer_2" data-name="Layer 2"><g id="Layer_1-2" data-name="Layer 1"><path class="cls-1" d="M150.88,23.52a3.14,3.14,0,0,0,0-.53,21,21,0,0,0-21-20.49H94.09a57.89,57.89,0,0,1,17,40.94V75L42.3,6.2h0a12.62,12.62,0,0,0-8.93-3.7H15.13A12.64,12.64,0,0,0,2.5,15.13V129.86a21,21,0,0,0,21,21H59.28a58,58,0,0,1-17-41V62.51l68.75,68.72,15.47,15.47a14.28,14.28,0,0,0,10.09,4.18h0a14.27,14.27,0,0,0,14.27-14.27V114.78l0-55.52,0,0Z"/></g></g></svg>