<svg xmlns="http://www.w3.org/2000/svg" viewBox="0 0 360 360"><defs><style>.cls-1{fill:#fbb040;}.cls-2{fill:#231f20;}</style></defs><g id="Layer_2" data-name="Layer 2"><g id="Layer_1-2" data-name="Layer 1"><rect class="cls-1" width="360" height="360"/><path class="cls-2" d="M254.19,126.83a3.14,3.14,0,0,0,0-.53,21,21,0,0,0-21-20.49H197.4a57.89,57.89,0,0,1,17,40.94v31.51l-68.75-68.75h0a12.62,12.62,0,0,0-8.93-3.7H118.44a12.64,12.64,0,0,0-12.63,12.63V233.17a21,21,0,0,0,21,21H162.6a58,58,0,0,1-17-41V165.82l68.75,68.72L229.83,250a14.29,14.29,0,0,0,10.09,4.18h0a14.27,14.27,0,0,0,14.27-14.27V218.09l0-55.52,0,0Z"/></g></g></svg>