<svg xmlns="http://www.w3.org/2000/svg" viewBox="0 0 361 361"><defs><style>.cls-1{fill:#f1f2f2;}.cls-1,.cls-2{stroke:#231f20;stroke-miterlimit:10;}.cls-2{fill:#00aeef;stroke-width:5px;}</style></defs><g id="Layer_2" data-name="Layer 2"><g id="Layer_1-2" data-name="Layer 1"><rect class="cls-1" x="0.5" y="0.5" width="360" height="360"/><path class="cls-2" d="M254.69,127.33a3.14,3.14,0,0,0,0-.53,21,21,0,0,0-21-20.49H197.9a57.89,57.89,0,0,1,17,40.94v31.51L146.11,110h0a12.62,12.62,0,0,0-8.93-3.7H118.94a12.64,12.64,0,0,0-12.63,12.63V233.67a21,21,0,0,0,21,21H163.1a58,58,0,0,1-17-41V166.32L214.86,235l15.47,15.47a14.29,14.29,0,0,0,10.09,4.18h0a14.27,14.27,0,0,0,14.27-14.27V218.59l0-55.52,0,0Z"/></g></g></svg>