<svg xmlns="http://www.w3.org/2000/svg" viewBox="0 0 360 360"><defs><style>.cls-1{fill:none;}.cls-2{fill:#fff;}</style></defs><g id="Layer_2" data-name="Layer 2"><g id="Layer_1-2" data-name="Layer 1"><rect class="cls-1" width="360" height="360"/><path class="cls-2" d="M280,108.33a4.23,4.23,0,0,0,0-.71A28.29,28.29,0,0,0,251.67,80H203.46a78,78,0,0,1,22.86,55.18v42.48L133.65,85h0a17,17,0,0,0-12-5H97A17,17,0,0,0,80,97V251.67A28.34,28.34,0,0,0,108.33,280h48.21a78.16,78.16,0,0,1-22.89-55.27V160.88l92.67,92.64,20.85,20.85a19.25,19.25,0,0,0,13.6,5.63h0A19.23,19.23,0,0,0,280,260.77V231.34l0-74.84,0,0Z"/></g></g></svg>