<svg xmlns="http://www.w3.org/2000/svg" viewBox="0 0 913.32 148.38"><defs><style>.cls-1{fill:#231f20;}</style></defs><g id="Layer_2" data-name="Layer 2"><g id="Layer_1-2" data-name="Layer 1"><path class="cls-1" d="M148.38,21a3.14,3.14,0,0,0,0-.53A21,21,0,0,0,127.36,0H91.59a57.89,57.89,0,0,1,17,40.94V72.45L39.8,3.7h0A12.62,12.62,0,0,0,30.87,0H12.63A12.64,12.64,0,0,0,0,12.63V127.36a21,21,0,0,0,21,21H56.78a58,58,0,0,1-17-41V60l68.75,68.72L124,144.2a14.28,14.28,0,0,0,10.09,4.18h0a14.27,14.27,0,0,0,14.27-14.27V112.28l0-55.52,0,0Z"/><path class="cls-1" d="M191.22,71.43V5.26h23.72l13.14,57.67h1.71V5.26h12.28V71.43H218.35L205.21,13.77h-1.7V71.43Z"/><path class="cls-1" d="M276.29,72.76a25,25,0,0,1-12.33-3,21,21,0,0,1-8.32-8.41,26.24,26.24,0,0,1-3-12.81V47.42a26.68,26.68,0,0,1,2.93-12.81,20.76,20.76,0,0,1,8.23-8.41,24.69,24.69,0,0,1,12.29-3,22.8,22.8,0,0,1,12,3.08,21.08,21.08,0,0,1,7.94,8.5,26.93,26.93,0,0,1,2.84,12.62v4.07H264.76a10.63,10.63,0,0,0,3.59,7.84,12.06,12.06,0,0,0,8.32,3q5,0,7.38-2.18a15.22,15.22,0,0,0,3.59-4.82l9.74,5.11a30.49,30.49,0,0,1-3.83,5.34,20.74,20.74,0,0,1-6.67,4.91A24,24,0,0,1,276.29,72.76ZM264.86,42.6h21.93a9.39,9.39,0,0,0-3.26-6.52A11.2,11.2,0,0,0,276,33.62a11.31,11.31,0,0,0-7.66,2.46A10.55,10.55,0,0,0,264.86,42.6Z"/><path class="cls-1" d="M331.78,72.76a27.36,27.36,0,0,1-12.57-2.84,21.24,21.24,0,0,1-8.79-8.22,24.88,24.88,0,0,1-3.22-13V47.23a24.86,24.86,0,0,1,3.22-12.95,21.24,21.24,0,0,1,8.79-8.22,29.26,29.26,0,0,1,25.15,0,21.36,21.36,0,0,1,8.79,8.22,24.85,24.85,0,0,1,3.21,12.95v1.52a24.88,24.88,0,0,1-3.21,13,21.36,21.36,0,0,1-8.79,8.22A27.37,27.37,0,0,1,331.78,72.76Zm0-10.59a12.38,12.38,0,0,0,9.08-3.55q3.58-3.54,3.59-10.16v-.94q0-6.62-3.55-10.16a13.43,13.43,0,0,0-18.19,0q-3.6,3.54-3.59,10.16v.94q0,6.61,3.59,10.16A12.35,12.35,0,0,0,331.78,62.17Z"/><path class="cls-1" d="M389.92,72.76A31.54,31.54,0,0,1,376.4,70a21.47,21.47,0,0,1-9.17-7.84,22.07,22.07,0,0,1-3.31-12.29V47.23h12.29v2.65q0,6,3.69,8.93c2.46,2,5.79,3,10,3s7.48-.85,9.59-2.55a8,8,0,0,0,3.17-6.52,6.34,6.34,0,0,0-1.56-4.45,11.37,11.37,0,0,0-4.54-2.79,58.59,58.59,0,0,0-7.23-2L387.18,43a55,55,0,0,1-11.68-3.83,18.36,18.36,0,0,1-7.47-6.1,17,17,0,0,1-2.6-9.83,18.19,18.19,0,0,1,2.89-10.35,18.56,18.56,0,0,1,8.13-6.62,30.41,30.41,0,0,1,12.33-2.31A31.22,31.22,0,0,1,401.4,6.35a19.55,19.55,0,0,1,8.7,7.18,21.22,21.22,0,0,1,3.17,12v2.84H401V25.49a11.27,11.27,0,0,0-1.47-6.1,8.57,8.57,0,0,0-4.2-3.4,17.78,17.78,0,0,0-6.53-1.09q-5.67,0-8.36,2.13a7,7,0,0,0-2.7,5.82A6.72,6.72,0,0,0,379,27a9.44,9.44,0,0,0,3.83,2.84,33.53,33.53,0,0,0,6.52,2l2.18.47a61.84,61.84,0,0,1,12.33,3.87A20.69,20.69,0,0,1,412,42.41,16.06,16.06,0,0,1,415,52.34,18.69,18.69,0,0,1,411.9,63a20.59,20.59,0,0,1-8.7,7.19A31.46,31.46,0,0,1,389.92,72.76Z"/><path class="cls-1" d="M442.57,71.43a10.19,10.19,0,0,1-7.52-2.88,10.41,10.41,0,0,1-2.88-7.7V34.38H420.45V24.55h11.72V10h11.91V24.55h12.86v9.83H444.08V58.77c0,1.89.89,2.83,2.65,2.83h9.07v9.83Z"/><path class="cls-1" d="M467.72,71.43V24.55h11.72v5.29h1.7a7.45,7.45,0,0,1,3.45-4.16,11.53,11.53,0,0,1,5.62-1.32h5.67V34.94H490a11.38,11.38,0,0,0-7.47,2.42c-1.95,1.6-2.92,4.08-2.92,7.42V71.43Z"/><path class="cls-1" d="M518.57,72.76a22.17,22.17,0,0,1-9-1.75,14.65,14.65,0,0,1-6.29-5.11A14,14,0,0,1,501,57.73a13.66,13.66,0,0,1,2.31-8.09,14.16,14.16,0,0,1,6.43-4.91,25.11,25.11,0,0,1,9.41-1.66H532V40.43A7.44,7.44,0,0,0,529.91,35c-1.38-1.42-3.59-2.13-6.61-2.13s-5.17.68-6.62,2a9.66,9.66,0,0,0-2.84,5.24l-11-3.68a19,19,0,0,1,3.64-6.57,18,18,0,0,1,6.71-4.82,25.47,25.47,0,0,1,10.26-1.85q9.25,0,14.65,4.64t5.39,13.42V58.77c0,1.89.88,2.83,2.64,2.83H550v9.83H542a9.3,9.3,0,0,1-5.77-1.7A5.4,5.4,0,0,1,534,65.19V65.1h-1.8a12.23,12.23,0,0,1-1.7,3,11.11,11.11,0,0,1-4.16,3.26A17.61,17.61,0,0,1,518.57,72.76Zm2.08-9.65a11.93,11.93,0,0,0,8.18-2.78A9.41,9.41,0,0,0,532,52.91V52H520a8.45,8.45,0,0,0-5.2,1.42,4.67,4.67,0,0,0-1.89,4,5.09,5.09,0,0,0,2,4.16A9,9,0,0,0,520.65,63.11Z"/><path class="cls-1" d="M558.65,90.34V24.55h11.72v5.67h1.7a14.64,14.64,0,0,1,5-4.87q3.4-2.13,9.74-2.13a20.28,20.28,0,0,1,18.24,11,26.87,26.87,0,0,1,2.93,13v1.52a26.87,26.87,0,0,1-2.93,13,20.28,20.28,0,0,1-18.24,11,21.89,21.89,0,0,1-7.14-1,13.48,13.48,0,0,1-4.63-2.55A15.71,15.71,0,0,1,572.26,66h-1.7v24.3Zm24.58-28a12.62,12.62,0,0,0,9.21-3.55q3.64-3.54,3.64-10.35v-.94q0-6.81-3.68-10.35a13.62,13.62,0,0,0-18.34,0q-3.69,3.54-3.69,10.35v.94q0,6.81,3.69,10.35A12.68,12.68,0,0,0,583.23,62.36Z"/><path class="cls-1" d="M636.92,71.43,654.31,5.26h21.74l17.4,66.17H680.59L677,56.88H653.37l-3.59,14.55ZM656.3,45.34h17.77l-8-32.23h-1.7Z"/><path class="cls-1" d="M720.67,72.76A20.62,20.62,0,0,1,710.23,70a20.34,20.34,0,0,1-7.8-8.18,26.87,26.87,0,0,1-2.93-13V47.23a26.87,26.87,0,0,1,2.93-13,20.28,20.28,0,0,1,18.24-11,21.89,21.89,0,0,1,7.14,1,14.54,14.54,0,0,1,4.68,2.5,11.85,11.85,0,0,1,2.74,3.21h1.7V5.26h11.91V71.43H737.12V65.76h-1.7a15.49,15.49,0,0,1-5,4.82Q727.1,72.76,720.67,72.76Zm3.59-10.4a12.67,12.67,0,0,0,9.17-3.55q3.69-3.54,3.69-10.35v-.94q0-6.81-3.64-10.35a13.67,13.67,0,0,0-18.38,0q-3.69,3.54-3.69,10.35v.94q0,6.81,3.69,10.35A12.66,12.66,0,0,0,724.26,62.36Z"/><path class="cls-1" d="M762.07,71.43V24.55h11.72v5.1h1.71a10.83,10.83,0,0,1,4.06-4.11A14,14,0,0,1,787,23.79a14.77,14.77,0,0,1,8,1.94,13.09,13.09,0,0,1,4.63,5.06h1.7a13.7,13.7,0,0,1,4.54-5q2.92-2,8.31-2a16.88,16.88,0,0,1,7.9,1.84,13.83,13.83,0,0,1,5.67,5.58A18.8,18.8,0,0,1,830,40.62V71.43H818v-30c0-2.59-.67-4.52-2-5.82a7.65,7.65,0,0,0-5.58-1.93,7.78,7.78,0,0,0-6.28,2.6c-1.49,1.73-2.22,4.2-2.22,7.42V71.43H790.05v-30c0-2.59-.66-4.52-2-5.82a7.65,7.65,0,0,0-5.58-1.93,7.82,7.82,0,0,0-6.29,2.6c-1.47,1.73-2.22,4.2-2.22,7.42V71.43Z"/><path class="cls-1" d="M848.76,19.06A7.64,7.64,0,0,1,843.32,17a7.14,7.14,0,0,1-2.22-5.48A7.16,7.16,0,0,1,843.32,6a8.21,8.21,0,0,1,10.92,0,7.23,7.23,0,0,1,2.17,5.48A7.22,7.22,0,0,1,854.24,17,7.6,7.6,0,0,1,848.76,19.06Zm-6,52.37V24.55h11.91V71.43Z"/><path class="cls-1" d="M867.94,71.43V24.55h11.73v6.14h1.7A12.3,12.3,0,0,1,885.62,26q3.12-2.22,9.45-2.22a18.08,18.08,0,0,1,9.6,2.51,17.07,17.07,0,0,1,6.38,6.9,22.09,22.09,0,0,1,2.27,10.25v28H901.41v-27q0-5.3-2.6-7.94t-7.42-2.65a10.44,10.44,0,0,0-8.51,3.64q-3,3.64-3,10.16V71.43Z"/><path class="cls-1" d="M202.05,139.47a12.88,12.88,0,0,1-5.74-1.2,8.94,8.94,0,0,1-3.76-3.34,9.16,9.16,0,0,1-1.33-5H195a6.62,6.62,0,0,0,.81,3.23,5.92,5.92,0,0,0,2.38,2.35,7.75,7.75,0,0,0,3.87.88,8.23,8.23,0,0,0,3.45-.66,5.06,5.06,0,0,0,2.18-1.82,4.69,4.69,0,0,0,.75-2.61,4.83,4.83,0,0,0-.71-2.72,5.52,5.52,0,0,0-1.94-1.8,17.05,17.05,0,0,0-2.87-1.26c-1.09-.37-2.26-.76-3.51-1.16a12.43,12.43,0,0,1-5.46-3,6.59,6.59,0,0,1-1.7-4.69,8,8,0,0,1,1.14-4.28,7.83,7.83,0,0,1,3.25-2.89,11.24,11.24,0,0,1,5-1,11,11,0,0,1,5,1.07,8.34,8.34,0,0,1,3.32,2.94,7.75,7.75,0,0,1,1.2,4.3H207.4a5.08,5.08,0,0,0-.64-2.44,5.23,5.23,0,0,0-1.95-2,6.19,6.19,0,0,0-3.27-.79,6.49,6.49,0,0,0-2.89.53,4.41,4.41,0,0,0-2.68,4.26,4.11,4.11,0,0,0,.62,2.36,5.06,5.06,0,0,0,1.8,1.52,17.72,17.72,0,0,0,2.76,1.13c1.06.34,2.23.73,3.51,1.16a18,18,0,0,1,3.88,1.77,7.81,7.81,0,0,1,2.65,2.68,8.07,8.07,0,0,1,1,4.15,7.76,7.76,0,0,1-1.14,4,8.5,8.5,0,0,1-3.36,3.1A11.77,11.77,0,0,1,202.05,139.47Z"/><path class="cls-1" d="M219.43,112.16a2.4,2.4,0,0,1-1.77-.71,2.37,2.37,0,0,1-.71-1.78,2.23,2.23,0,0,1,.71-1.73,2.5,2.5,0,0,1,1.77-.67,2.54,2.54,0,0,1,1.76.67,2.25,2.25,0,0,1,.73,1.73,2.39,2.39,0,0,1-.73,1.78A2.45,2.45,0,0,1,219.43,112.16ZM217.64,139V116.44h3.59V139Z"/><path class="cls-1" d="M227.61,139V116.44h3.26l.17,3.08a7.33,7.33,0,0,1,2.78-2.63,7.48,7.48,0,0,1,3.68-1,8.92,8.92,0,0,1,2.93.45,6.33,6.33,0,0,1,2.29,1.37,6.9,6.9,0,0,1,1.59,2.29,7.54,7.54,0,0,1,3-3.06,8.16,8.16,0,0,1,4-1,8.76,8.76,0,0,1,4.26,1,6.45,6.45,0,0,1,2.74,2.91,11,11,0,0,1,1,4.86V139h-3.55V125a6.67,6.67,0,0,0-1.33-4.54,4.57,4.57,0,0,0-3.6-1.49,5.09,5.09,0,0,0-2.8.81,5.6,5.6,0,0,0-2,2.4,8.93,8.93,0,0,0-.75,3.85V139h-3.6V125a6.72,6.72,0,0,0-1.32-4.54,4.55,4.55,0,0,0-3.56-1.49,5,5,0,0,0-2.76.81,5.7,5.7,0,0,0-2,2.4,8.64,8.64,0,0,0-.77,3.85V139Z"/><path class="cls-1" d="M265.24,148.38V116.44h3.26l.3,3.51a8.21,8.21,0,0,1,1.73-2,8.32,8.32,0,0,1,2.53-1.46,9.62,9.62,0,0,1,3.4-.56,9.37,9.37,0,0,1,5.33,1.54,10.44,10.44,0,0,1,3.58,4.2,15,15,0,0,1,0,12.12,10.19,10.19,0,0,1-3.6,4.17,10.25,10.25,0,0,1-9.93.45,7.17,7.17,0,0,1-3-3v13Zm10.75-12a6.24,6.24,0,0,0,3.57-1,7.3,7.3,0,0,0,2.49-3,12,12,0,0,0,0-9.21,7.33,7.33,0,0,0-2.49-3,6.24,6.24,0,0,0-3.57-1,6.6,6.6,0,0,0-3.73,1,6.8,6.8,0,0,0-2.44,3,12.9,12.9,0,0,0,0,9.21,6.77,6.77,0,0,0,2.44,3A6.6,6.6,0,0,0,276,136.35Z"/><path class="cls-1" d="M291.87,139V108.13h3.6V139Z"/><path class="cls-1" d="M310.88,139.47a9.69,9.69,0,0,1-5.31-1.46,9.92,9.92,0,0,1-3.62-4.1,15.48,15.48,0,0,1,0-12.42,9.68,9.68,0,0,1,9-5.57,9.61,9.61,0,0,1,5.44,1.46,9.18,9.18,0,0,1,3.29,3.89,12.82,12.82,0,0,1,1.11,5.36v.85c0,.29,0,.63,0,1H303.35v-2.78h14a6.9,6.9,0,0,0-1.91-5,6.3,6.3,0,0,0-4.52-1.74,6.43,6.43,0,0,0-5.78,3.47,8.89,8.89,0,0,0-.94,4.28v1.2a10.74,10.74,0,0,0,.94,4.73,6.81,6.81,0,0,0,2.46,2.85,6.18,6.18,0,0,0,3.32.94,6.71,6.71,0,0,0,3.77-.92,5.32,5.32,0,0,0,2-2.63h3.56a9,9,0,0,1-1.78,3.38,8.74,8.74,0,0,1-3.17,2.35A10.46,10.46,0,0,1,310.88,139.47Z"/><path class="cls-1" d="M323.21,144.22l2.48-9.46h3.73l-3.73,9.46Z"/><path class="cls-1" d="M345.86,139V109h10.53a12.08,12.08,0,0,1,5.25,1,7.13,7.13,0,0,1,3.1,2.74,7.43,7.43,0,0,1,1,3.88,6.91,6.91,0,0,1-1,3.85,6.73,6.73,0,0,1-2.61,2.36,9.38,9.38,0,0,1-3.4,1l.6-.43a7,7,0,0,1,3.55,1,7.32,7.32,0,0,1,3.55,6.38,7.91,7.91,0,0,1-1.11,4.13,7.8,7.8,0,0,1-3.27,3,11.88,11.88,0,0,1-5.33,1.09Zm3.6-16.87h6.67a6.45,6.45,0,0,0,4.44-1.37,4.79,4.79,0,0,0,1.52-3.73,4.69,4.69,0,0,0-1.52-3.64A6.66,6.66,0,0,0,356,112h-6.55Zm0,13.87h6.89a7.14,7.14,0,0,0,4.73-1.43,5,5,0,0,0,1.69-4,5.12,5.12,0,0,0-1.73-4,7,7,0,0,0-4.78-1.52h-6.8Z"/><path class="cls-1" d="M371.55,139V116.44h3.25l.26,4.11a7.67,7.67,0,0,1,2-2.57,8.14,8.14,0,0,1,3-1.54,14.1,14.1,0,0,1,4-.52v3.77h-2.22a9,9,0,0,0-2.49.34,6,6,0,0,0-2.16,1.12,5.18,5.18,0,0,0-1.52,2.09,8.72,8.72,0,0,0-.56,3.34V139Z"/><path class="cls-1" d="M396.34,139.47a9.37,9.37,0,0,1-4.33-.94,6.68,6.68,0,0,1-2.87-2.89,10.41,10.41,0,0,1-1-4.86V116.44h3.59v13.95a6.19,6.19,0,0,0,1.48,4.5,5.32,5.32,0,0,0,4,1.5,6.11,6.11,0,0,0,3.08-.79,5.82,5.82,0,0,0,2.21-2.34,7.74,7.74,0,0,0,.83-3.76V116.44h3.6V139h-3.25l-.22-3.6a6.57,6.57,0,0,1-2.76,3A8.52,8.52,0,0,1,396.34,139.47Z"/><path class="cls-1" d="M421.68,139a8.52,8.52,0,0,1-3.34-.6,4.28,4.28,0,0,1-2.16-2,8.37,8.37,0,0,1-.75-3.87v-13h-3.94v-3h3.94l.47-5.61H419v5.61h6.38v3H419v13a3.55,3.55,0,0,0,.81,2.72,4.44,4.44,0,0,0,2.87.7h2.61V139Z"/><path class="cls-1" d="M437.35,139.47a8.66,8.66,0,0,1-4.28-1,6.36,6.36,0,0,1-2.57-2.57,7.22,7.22,0,0,1-.85-3.45,6.28,6.28,0,0,1,1.13-3.79,7,7,0,0,1,3.19-2.37,13,13,0,0,1,4.79-.82h5.61a11.2,11.2,0,0,0-.51-3.64,4.08,4.08,0,0,0-1.67-2.18,5.78,5.78,0,0,0-3.08-.73,5.53,5.53,0,0,0-3.3,1,4.25,4.25,0,0,0-1.71,2.84h-3.68a7,7,0,0,1,1.5-3.74,7.69,7.69,0,0,1,3.14-2.31,11.39,11.39,0,0,1,9.06.29,6.88,6.88,0,0,1,2.91,3,10.62,10.62,0,0,1,.94,4.61V139h-3.21l-.21-3.86a8,8,0,0,1-1.1,1.69,7.23,7.23,0,0,1-1.56,1.4,7.71,7.71,0,0,1-2,.94A8.61,8.61,0,0,1,437.35,139.47Zm.51-3a5.43,5.43,0,0,0,2.62-.64,6.64,6.64,0,0,0,2.07-1.74,7.74,7.74,0,0,0,1.35-2.46,8.6,8.6,0,0,0,.47-2.87v-.42h-5.3a8.85,8.85,0,0,0-3.28.51,3.63,3.63,0,0,0-1.82,1.43,4,4,0,0,0-.56,2.08,4.37,4.37,0,0,0,.52,2.16,3.53,3.53,0,0,0,1.52,1.44A5.26,5.26,0,0,0,437.86,136.43Z"/><path class="cls-1" d="M453.92,139V108.13h3.6V139Z"/><path class="cls-1" d="M482.13,139.47a8.66,8.66,0,0,1-4.28-1,6.42,6.42,0,0,1-2.57-2.57,7.22,7.22,0,0,1-.85-3.45,6.28,6.28,0,0,1,1.13-3.79,7,7,0,0,1,3.19-2.37,13,13,0,0,1,4.8-.82h5.6a11.2,11.2,0,0,0-.51-3.64,4.08,4.08,0,0,0-1.67-2.18,5.78,5.78,0,0,0-3.08-.73,5.55,5.55,0,0,0-3.3,1,4.25,4.25,0,0,0-1.71,2.84H475.2a7,7,0,0,1,1.5-3.74,7.69,7.69,0,0,1,3.14-2.31,11.39,11.39,0,0,1,9.06.29,6.88,6.88,0,0,1,2.91,3,10.48,10.48,0,0,1,.94,4.61V139h-3.21l-.21-3.86a7.66,7.66,0,0,1-1.1,1.69,7.23,7.23,0,0,1-1.56,1.4,7.71,7.71,0,0,1-2,.94A8.61,8.61,0,0,1,482.13,139.47Zm.52-3a5.42,5.42,0,0,0,2.61-.64,6.79,6.79,0,0,0,2.08-1.74,8.16,8.16,0,0,0,1.35-2.46,8.85,8.85,0,0,0,.46-2.87v-.42h-5.3a8.85,8.85,0,0,0-3.28.51,3.63,3.63,0,0,0-1.82,1.43,4,4,0,0,0-.56,2.08,4.37,4.37,0,0,0,.52,2.16,3.53,3.53,0,0,0,1.52,1.44A5.3,5.3,0,0,0,482.65,136.43Z"/><path class="cls-1" d="M498.7,139V116.44H502l.17,3.55a7.11,7.11,0,0,1,2.85-3,8.49,8.49,0,0,1,4.3-1.07,9.48,9.48,0,0,1,4.32.94,6.63,6.63,0,0,1,2.87,2.87,10.38,10.38,0,0,1,1,4.88V139h-3.6V125a6.15,6.15,0,0,0-1.48-4.5,5.32,5.32,0,0,0-4-1.49,6.17,6.17,0,0,0-3.08.79,5.75,5.75,0,0,0-2.25,2.33,7.93,7.93,0,0,0-.83,3.77V139Z"/><path class="cls-1" d="M532.74,139.47a9.32,9.32,0,0,1-5.31-1.54,10.24,10.24,0,0,1-3.59-4.22,13.76,13.76,0,0,1-1.29-6.06,13.56,13.56,0,0,1,1.29-6.05,10.19,10.19,0,0,1,3.59-4.16,9.55,9.55,0,0,1,5.35-1.52,9.21,9.21,0,0,1,4.56,1.07,8,8,0,0,1,3,3V108.13H544V139H540.7l-.3-3.6a8.53,8.53,0,0,1-1.69,2,8.11,8.11,0,0,1-2.52,1.52A9.38,9.38,0,0,1,532.74,139.47Zm.47-3.12a6.55,6.55,0,0,0,3.72-1,6.79,6.79,0,0,0,2.45-3,12.9,12.9,0,0,0,0-9.21,6.82,6.82,0,0,0-2.45-3,6.55,6.55,0,0,0-3.72-1,6.39,6.39,0,0,0-3.6,1,7.09,7.09,0,0,0-2.48,3,12.23,12.23,0,0,0,0,9.21,7.06,7.06,0,0,0,2.48,3A6.39,6.39,0,0,0,533.21,136.35Z"/><path class="cls-1" d="M561.81,139V109h10.53a12.08,12.08,0,0,1,5.25,1,7.13,7.13,0,0,1,3.1,2.74,7.43,7.43,0,0,1,1,3.88,6.91,6.91,0,0,1-1,3.85,6.73,6.73,0,0,1-2.61,2.36,9.37,9.37,0,0,1-3.41,1l.61-.43a7,7,0,0,1,3.55,1,7.32,7.32,0,0,1,3.55,6.38,7.91,7.91,0,0,1-1.11,4.13,7.77,7.77,0,0,1-3.28,3,11.82,11.82,0,0,1-5.33,1.09Zm3.59-16.87h6.68a6.45,6.45,0,0,0,4.44-1.37A4.79,4.79,0,0,0,578,117a4.68,4.68,0,0,0-1.51-3.64A6.66,6.66,0,0,0,572,112H565.4Zm0,13.87h6.9a7.14,7.14,0,0,0,4.73-1.43,5,5,0,0,0,1.69-4,5.12,5.12,0,0,0-1.73-4,7,7,0,0,0-4.78-1.52H565.4Z"/><path class="cls-1" d="M594.52,139.47a8.63,8.63,0,0,1-4.28-1,6.36,6.36,0,0,1-2.57-2.57,7.23,7.23,0,0,1-.86-3.45A6.28,6.28,0,0,1,588,128.7a6.91,6.91,0,0,1,3.19-2.37,13,13,0,0,1,4.79-.82h5.61a11.2,11.2,0,0,0-.51-3.64,4.13,4.13,0,0,0-1.67-2.18,5.79,5.79,0,0,0-3.09-.73,5.52,5.52,0,0,0-3.29,1,4.22,4.22,0,0,0-1.72,2.84h-3.68a7,7,0,0,1,1.5-3.74,7.79,7.79,0,0,1,3.15-2.31,11.37,11.37,0,0,1,9,.29,6.88,6.88,0,0,1,2.91,3,10.48,10.48,0,0,1,.95,4.61V139h-3.21l-.22-3.86a7.61,7.61,0,0,1-1.09,1.69,7.23,7.23,0,0,1-1.56,1.4,7.63,7.63,0,0,1-2,.94A8.54,8.54,0,0,1,594.52,139.47Zm.51-3a5.39,5.39,0,0,0,2.61-.64,6.67,6.67,0,0,0,2.08-1.74,8.16,8.16,0,0,0,1.35-2.46,8.86,8.86,0,0,0,.47-2.87v-.42h-5.31a8.92,8.92,0,0,0-3.28.51,3.6,3.6,0,0,0-1.81,1.43,3.89,3.89,0,0,0-.56,2.08,4.37,4.37,0,0,0,.51,2.16,3.59,3.59,0,0,0,1.52,1.44A5.3,5.3,0,0,0,595,136.43Z"/><path class="cls-1" d="M620.38,139.47a9.32,9.32,0,0,1-5.31-1.54,10.33,10.33,0,0,1-3.6-4.22,13.89,13.89,0,0,1-1.28-6.06,13.7,13.7,0,0,1,1.28-6.05,10.29,10.29,0,0,1,3.6-4.16,9.53,9.53,0,0,1,5.35-1.52A9.21,9.21,0,0,1,625,117a8,8,0,0,1,3,3V108.13h3.6V139h-3.26l-.3-3.6a8.53,8.53,0,0,1-1.69,2,8,8,0,0,1-2.53,1.52A9.29,9.29,0,0,1,620.38,139.47Zm.47-3.12a6.57,6.57,0,0,0,3.72-1,6.71,6.71,0,0,0,2.44-3,12.76,12.76,0,0,0,0-9.21,6.73,6.73,0,0,0-2.44-3,6.57,6.57,0,0,0-3.72-1,6.39,6.39,0,0,0-3.6,1,7,7,0,0,0-2.48,3,12.23,12.23,0,0,0,0,9.21,7,7,0,0,0,2.48,3A6.39,6.39,0,0,0,620.85,136.35Z"/><path class="cls-1" d="M644.69,139.47a8.68,8.68,0,0,1-4.28-1,6.42,6.42,0,0,1-2.57-2.57,7.22,7.22,0,0,1-.85-3.45,6.34,6.34,0,0,1,1.13-3.79,7,7,0,0,1,3.19-2.37,13,13,0,0,1,4.8-.82h5.61a11.18,11.18,0,0,0-.52-3.64,4.08,4.08,0,0,0-1.67-2.18,5.78,5.78,0,0,0-3.08-.73,5.57,5.57,0,0,0-3.3,1,4.25,4.25,0,0,0-1.71,2.84h-3.68a7,7,0,0,1,1.5-3.74,7.76,7.76,0,0,1,3.14-2.31,11.39,11.39,0,0,1,9.06.29,6.88,6.88,0,0,1,2.91,3,10.48,10.48,0,0,1,.94,4.61V139H652.1l-.21-3.86a8,8,0,0,1-1.09,1.69,7.39,7.39,0,0,1-3.6,2.34A8.61,8.61,0,0,1,644.69,139.47Zm.52-3a5.42,5.42,0,0,0,2.61-.64,6.79,6.79,0,0,0,2.08-1.74,8.16,8.16,0,0,0,1.35-2.46,8.86,8.86,0,0,0,.47-2.87v-.42h-5.31a8.85,8.85,0,0,0-3.28.51,3.63,3.63,0,0,0-1.82,1.43,4,4,0,0,0-.56,2.08,4.37,4.37,0,0,0,.52,2.16,3.53,3.53,0,0,0,1.52,1.44A5.3,5.3,0,0,0,645.21,136.43Z"/><path class="cls-1" d="M669.4,139.47a12,12,0,0,1-5-.92,6.74,6.74,0,0,1-3-2.57,8.63,8.63,0,0,1-1.24-3.83h3.68a5.29,5.29,0,0,0,.79,2.12,4.53,4.53,0,0,0,1.82,1.56,6.77,6.77,0,0,0,3,.6,6.14,6.14,0,0,0,2.48-.45,3.5,3.5,0,0,0,1.57-1.26,3.4,3.4,0,0,0,.53-1.89,3.51,3.51,0,0,0-.62-2.2,3.72,3.72,0,0,0-1.8-1.2,14.31,14.31,0,0,0-2.93-.62,18.67,18.67,0,0,1-3.34-.73,8.11,8.11,0,0,1-2.46-1.24,4.87,4.87,0,0,1-1.52-1.93,6.73,6.73,0,0,1-.51-2.74,5.52,5.52,0,0,1,1-3.25,6.43,6.43,0,0,1,2.8-2.2,10.73,10.73,0,0,1,4.31-.8,9.06,9.06,0,0,1,5.75,1.67,6.86,6.86,0,0,1,2.51,4.76h-3.55a3.54,3.54,0,0,0-1.46-2.49,6.74,6.74,0,0,0-6.59-.08,2.51,2.51,0,0,0-1.12,2.14,3.26,3.26,0,0,0,.5,1.77,3.63,3.63,0,0,0,1.69,1.33,11.54,11.54,0,0,0,3.21.79,18,18,0,0,1,4.28,1,5.46,5.46,0,0,1,2.68,2,6.4,6.4,0,0,1,.87,3.72,6.3,6.3,0,0,1-4,6.13A10.81,10.81,0,0,1,669.4,139.47Z"/><path class="cls-1" d="M691.19,139.47a12.06,12.06,0,0,1-5-.92,6.79,6.79,0,0,1-3-2.57,8.63,8.63,0,0,1-1.24-3.83h3.68a5.29,5.29,0,0,0,.79,2.12,4.53,4.53,0,0,0,1.82,1.56,6.77,6.77,0,0,0,3,.6,6.22,6.22,0,0,0,2.49-.45,3.52,3.52,0,0,0,1.56-1.26,3.4,3.4,0,0,0,.53-1.89,3.45,3.45,0,0,0-.62-2.2,3.72,3.72,0,0,0-1.8-1.2,14.31,14.31,0,0,0-2.93-.62,18.87,18.87,0,0,1-3.34-.73,8.11,8.11,0,0,1-2.46-1.24,4.87,4.87,0,0,1-1.52-1.93,6.73,6.73,0,0,1-.51-2.74,5.59,5.59,0,0,1,1-3.25,6.43,6.43,0,0,1,2.8-2.2,10.73,10.73,0,0,1,4.31-.8,9.11,9.11,0,0,1,5.76,1.67,6.88,6.88,0,0,1,2.5,4.76h-3.55a3.54,3.54,0,0,0-1.46-2.49,6.74,6.74,0,0,0-6.59-.08,2.52,2.52,0,0,0-1.11,2.14,3.25,3.25,0,0,0,.49,1.77,3.68,3.68,0,0,0,1.69,1.33,11.54,11.54,0,0,0,3.21.79,18,18,0,0,1,4.28,1,5.46,5.46,0,0,1,2.68,2,6.4,6.4,0,0,1,.88,3.72,6.53,6.53,0,0,1-1,3.77,6.62,6.62,0,0,1-2.91,2.36A10.89,10.89,0,0,1,691.19,139.47Z"/></g></g></svg>