<svg xmlns="http://www.w3.org/2000/svg" viewBox="0 0 913.32 148.38"><defs><style>.cls-1{fill:#231f20;}</style></defs><g id="Layer_2" data-name="Layer 2"><g id="Layer_1-2" data-name="Layer 1"><path class="cls-1" d="M148.38,21a3.14,3.14,0,0,0,0-.53A21,21,0,0,0,127.36,0H91.59a57.89,57.89,0,0,1,17,40.94V72.45L39.8,3.7h0A12.62,12.62,0,0,0,30.87,0H12.63A12.64,12.64,0,0,0,0,12.63V127.36a21,21,0,0,0,21,21H56.78a58,58,0,0,1-17-41V60l68.75,68.72L124,144.2a14.28,14.28,0,0,0,10.09,4.18h0a14.27,14.27,0,0,0,14.27-14.27V112.28l0-55.52,0,0Z"/><path class="cls-1" d="M191.22,98.48V32.31h23.72L228.08,90h1.71V32.31h12.28V98.48H218.35L205.21,40.82h-1.7V98.48Z"/><path class="cls-1" d="M276.29,99.81a25,25,0,0,1-12.33-3,20.94,20.94,0,0,1-8.32-8.42,26.18,26.18,0,0,1-3-12.8V74.47a26.68,26.68,0,0,1,2.93-12.81,20.76,20.76,0,0,1,8.23-8.41,24.69,24.69,0,0,1,12.29-3,22.88,22.88,0,0,1,12,3.07,21.17,21.17,0,0,1,7.94,8.51,26.93,26.93,0,0,1,2.84,12.62v4.07H264.76a10.63,10.63,0,0,0,3.59,7.84,12.06,12.06,0,0,0,8.32,3q5,0,7.38-2.18a15.33,15.33,0,0,0,3.59-4.82l9.74,5.11a30.49,30.49,0,0,1-3.83,5.34,20.74,20.74,0,0,1-6.67,4.91A24,24,0,0,1,276.29,99.81ZM264.86,69.65h21.93a9.39,9.39,0,0,0-3.26-6.52A11.2,11.2,0,0,0,276,60.67a11.31,11.31,0,0,0-7.66,2.46A10.55,10.55,0,0,0,264.86,69.65Z"/><path class="cls-1" d="M331.78,99.81A27.36,27.36,0,0,1,319.21,97a21.24,21.24,0,0,1-8.79-8.22,24.88,24.88,0,0,1-3.22-13V74.28a24.86,24.86,0,0,1,3.22-13,21.24,21.24,0,0,1,8.79-8.22,29.26,29.26,0,0,1,25.15,0,21.36,21.36,0,0,1,8.79,8.22,24.85,24.85,0,0,1,3.21,13V75.8a24.88,24.88,0,0,1-3.21,13A21.36,21.36,0,0,1,344.36,97,27.37,27.37,0,0,1,331.78,99.81Zm0-10.59a12.38,12.38,0,0,0,9.08-3.55q3.58-3.54,3.59-10.16v-.94q0-6.61-3.55-10.17a13.45,13.45,0,0,0-18.19,0q-3.6,3.55-3.59,10.17v.94q0,6.61,3.59,10.16A12.35,12.35,0,0,0,331.78,89.22Z"/><path class="cls-1" d="M389.92,99.81a31.54,31.54,0,0,1-13.52-2.75,21.47,21.47,0,0,1-9.17-7.84,22.07,22.07,0,0,1-3.31-12.29V74.28h12.29v2.65q0,6,3.69,8.93c2.46,2,5.79,3,10,3s7.48-.85,9.59-2.55a8,8,0,0,0,3.17-6.52,6.34,6.34,0,0,0-1.56-4.45,11.37,11.37,0,0,0-4.54-2.79,58.59,58.59,0,0,0-7.23-2L387.18,70A55,55,0,0,1,375.5,66.2,18.44,18.44,0,0,1,368,60.1a17,17,0,0,1-2.6-9.83,18.19,18.19,0,0,1,2.89-10.35,18.49,18.49,0,0,1,8.13-6.62A30.41,30.41,0,0,1,388.78,31,31.22,31.22,0,0,1,401.4,33.4a19.55,19.55,0,0,1,8.7,7.18,21.22,21.22,0,0,1,3.17,12v2.84H401V52.54a11.27,11.27,0,0,0-1.47-6.1,8.57,8.57,0,0,0-4.2-3.4A17.78,17.78,0,0,0,388.78,42q-5.67,0-8.36,2.13a7,7,0,0,0-2.7,5.81A6.73,6.73,0,0,0,379,54.05a9.44,9.44,0,0,0,3.83,2.84,32.91,32.91,0,0,0,6.52,2l2.18.48a61.84,61.84,0,0,1,12.33,3.87A20.69,20.69,0,0,1,412,69.46,16.06,16.06,0,0,1,415,79.39,18.69,18.69,0,0,1,411.9,90a20.59,20.59,0,0,1-8.7,7.19A31.46,31.46,0,0,1,389.92,99.81Z"/><path class="cls-1" d="M442.57,98.48a10.19,10.19,0,0,1-7.52-2.88,10.41,10.41,0,0,1-2.88-7.7V61.43H420.45V51.6h11.72V37h11.91V51.6h12.86v9.83H444.08V85.82c0,1.89.89,2.83,2.65,2.83h9.07v9.83Z"/><path class="cls-1" d="M467.72,98.48V51.6h11.72v5.29h1.7a7.45,7.45,0,0,1,3.45-4.16,11.53,11.53,0,0,1,5.62-1.32h5.67V62H490a11.43,11.43,0,0,0-7.47,2.41c-1.95,1.61-2.92,4.09-2.92,7.42V98.48Z"/><path class="cls-1" d="M518.57,99.81a22.17,22.17,0,0,1-9-1.75A14.65,14.65,0,0,1,503.3,93,14,14,0,0,1,501,84.78a13.66,13.66,0,0,1,2.31-8.09,14.16,14.16,0,0,1,6.43-4.91,25.11,25.11,0,0,1,9.41-1.66H532V67.48A7.44,7.44,0,0,0,529.91,62c-1.38-1.42-3.59-2.13-6.61-2.13s-5.17.68-6.62,2a9.66,9.66,0,0,0-2.84,5.24l-11-3.68a19,19,0,0,1,3.64-6.57,17.92,17.92,0,0,1,6.71-4.82,25.47,25.47,0,0,1,10.26-1.85q9.25,0,14.65,4.63t5.39,13.43V85.82c0,1.89.88,2.83,2.64,2.83H550v9.83H542a9.36,9.36,0,0,1-5.77-1.7A5.4,5.4,0,0,1,534,92.24v-.09h-1.8a12.23,12.23,0,0,1-1.7,3,11.11,11.11,0,0,1-4.16,3.26A17.61,17.61,0,0,1,518.57,99.81Zm2.08-9.65a12,12,0,0,0,8.18-2.78A9.42,9.42,0,0,0,532,80V79H520a8.45,8.45,0,0,0-5.2,1.42,4.67,4.67,0,0,0-1.89,4,5.09,5.09,0,0,0,2,4.16A9,9,0,0,0,520.65,90.16Z"/><path class="cls-1" d="M558.65,117.39V51.6h11.72v5.67h1.7a14.64,14.64,0,0,1,5-4.87q3.4-2.13,9.74-2.13a20.28,20.28,0,0,1,18.24,11,26.87,26.87,0,0,1,2.93,13V75.8a26.87,26.87,0,0,1-2.93,13,20.28,20.28,0,0,1-18.24,11,22.17,22.17,0,0,1-7.14-1,13.48,13.48,0,0,1-4.63-2.55,15.71,15.71,0,0,1-2.79-3.17h-1.7v24.3Zm24.58-28a12.62,12.62,0,0,0,9.21-3.55q3.64-3.54,3.64-10.35v-.94q0-6.81-3.68-10.35a13.62,13.62,0,0,0-18.34,0q-3.69,3.54-3.69,10.35v.94q0,6.81,3.69,10.35A12.68,12.68,0,0,0,583.23,89.41Z"/><path class="cls-1" d="M636.92,98.48l17.39-66.17h21.74l17.4,66.17H680.59L677,83.92H653.37l-3.59,14.56ZM656.3,72.39h17.77l-8-32.23h-1.7Z"/><path class="cls-1" d="M720.67,99.81A20.62,20.62,0,0,1,710.23,97a20.34,20.34,0,0,1-7.8-8.18,26.87,26.87,0,0,1-2.93-13V74.28a26.87,26.87,0,0,1,2.93-13,20.28,20.28,0,0,1,18.24-11,21.89,21.89,0,0,1,7.14,1,14.54,14.54,0,0,1,4.68,2.5A11.85,11.85,0,0,1,735.23,57h1.7V32.31h11.91V98.48H737.12V92.81h-1.7a15.49,15.49,0,0,1-5,4.82Q727.1,99.81,720.67,99.81Zm3.59-10.4a12.67,12.67,0,0,0,9.17-3.55q3.69-3.54,3.69-10.35v-.94q0-6.81-3.64-10.35a13.67,13.67,0,0,0-18.38,0q-3.69,3.54-3.69,10.35v.94q0,6.81,3.69,10.35A12.66,12.66,0,0,0,724.26,89.41Z"/><path class="cls-1" d="M762.07,98.48V51.6h11.72v5.1h1.71a10.83,10.83,0,0,1,4.06-4.11A14,14,0,0,1,787,50.84a14.77,14.77,0,0,1,8,1.94,13.13,13.13,0,0,1,4.63,5h1.7a13.86,13.86,0,0,1,4.54-5q2.92-2,8.31-2a16.88,16.88,0,0,1,7.9,1.84,13.83,13.83,0,0,1,5.67,5.58A18.77,18.77,0,0,1,830,67.67V98.48H818v-30c0-2.59-.67-4.52-2-5.82a7.65,7.65,0,0,0-5.58-1.93,7.81,7.81,0,0,0-6.28,2.59C802.7,65.1,802,67.57,802,70.78v27.7H790.05v-30c0-2.59-.66-4.52-2-5.82a7.65,7.65,0,0,0-5.58-1.93,7.84,7.84,0,0,0-6.29,2.59c-1.47,1.74-2.22,4.21-2.22,7.42v27.7Z"/><path class="cls-1" d="M848.76,46.11A7.64,7.64,0,0,1,843.32,44a7.14,7.14,0,0,1-2.22-5.48,7.16,7.16,0,0,1,2.22-5.48,8.21,8.21,0,0,1,10.92,0,7.23,7.23,0,0,1,2.17,5.48A7.22,7.22,0,0,1,854.24,44,7.6,7.6,0,0,1,848.76,46.11Zm-6,52.37V51.6h11.91V98.48Z"/><path class="cls-1" d="M867.94,98.48V51.6h11.73v6.14h1.7a12.3,12.3,0,0,1,4.25-4.68q3.12-2.22,9.45-2.22a18.17,18.17,0,0,1,9.6,2.5,17.1,17.1,0,0,1,6.38,6.91,22.06,22.06,0,0,1,2.27,10.25v28H901.41v-27q0-5.3-2.6-7.94t-7.42-2.65a10.44,10.44,0,0,0-8.51,3.64q-3,3.65-3,10.16V98.48Z"/></g></g></svg>