<svg xmlns="http://www.w3.org/2000/svg" viewBox="0 0 148.38 148.38"><defs><style>.cls-1{fill:#231f20;}</style></defs><g id="Layer_2" data-name="Layer 2"><g id="Layer_1-2" data-name="Layer 1"><path class="cls-1" d="M148.38,21a3.14,3.14,0,0,0,0-.53A21,21,0,0,0,127.36,0H91.59a57.89,57.89,0,0,1,17,40.94V72.45L39.8,3.7h0A12.62,12.62,0,0,0,30.87,0H12.63A12.64,12.64,0,0,0,0,12.63V127.36a21,21,0,0,0,21,21H56.78a58,58,0,0,1-17-41V60l68.75,68.72L124,144.2a14.28,14.28,0,0,0,10.09,4.18h0a14.27,14.27,0,0,0,14.27-14.27V112.28l0-55.52,0,0Z"/></g></g></svg>