<svg xmlns="http://www.w3.org/2000/svg" viewBox="0 0 361 361"><defs><style>.cls-1{fill:#f1f2f2;}.cls-1,.cls-2{stroke:#231f20;stroke-miterlimit:10;}.cls-2{fill:#00aeef;stroke-width:5px;}</style></defs><g id="Layer_2" data-name="Layer 2"><g id="Layer_1-2" data-name="Layer 1"><rect class="cls-1" x="0.5" y="0.5" width="360" height="360"/><path class="cls-2" d="M280.5,108.83a4.23,4.23,0,0,0,0-.71A28.29,28.29,0,0,0,252.17,80.5H204a78,78,0,0,1,22.86,55.18v42.48L134.15,85.49h0a17,17,0,0,0-12-5H97.53a17,17,0,0,0-17,17V252.17a28.34,28.34,0,0,0,28.33,28.33H157a78.16,78.16,0,0,1-22.89-55.27V161.38L226.82,254l20.85,20.85a19.25,19.25,0,0,0,13.6,5.63h0a19.23,19.23,0,0,0,19.23-19.23V231.84l0-74.84,0,0Z"/></g></g></svg>