<svg xmlns="http://www.w3.org/2000/svg" viewBox="0 0 915.82 153.38"><defs><style>.cls-1{fill:#00aeef;stroke:#231f20;stroke-miterlimit:10;stroke-width:5px;}.cls-2{fill:#231f20;}</style></defs><g id="Layer_2" data-name="Layer 2"><g id="Layer_1-2" data-name="Layer 1"><path class="cls-1" d="M150.88,23.52a3.14,3.14,0,0,0,0-.53,21,21,0,0,0-21-20.49H94.09a57.89,57.89,0,0,1,17,40.94V75L42.3,6.2h0a12.62,12.62,0,0,0-8.93-3.7H15.13A12.64,12.64,0,0,0,2.5,15.13V129.86a21,21,0,0,0,21,21H59.28a58,58,0,0,1-17-41V62.51l68.75,68.72,15.47,15.47a14.28,14.28,0,0,0,10.09,4.18h0a14.27,14.27,0,0,0,14.27-14.27V114.78l0-55.52,0,0Z"/><path class="cls-2" d="M193.72,101V34.81h23.72l13.14,57.66h1.71V34.81h12.28V101H220.85L207.71,43.32H206V101Z"/><path class="cls-2" d="M278.79,102.31a25,25,0,0,1-12.33-3,20.94,20.94,0,0,1-8.32-8.42,26.18,26.18,0,0,1-3-12.8V77a26.68,26.68,0,0,1,2.93-12.81,20.76,20.76,0,0,1,8.23-8.41,24.69,24.69,0,0,1,12.29-3,22.88,22.88,0,0,1,12,3.07,21.17,21.17,0,0,1,7.94,8.51A26.93,26.93,0,0,1,301.39,77V81H267.26a10.63,10.63,0,0,0,3.59,7.84,12.06,12.06,0,0,0,8.32,3q5,0,7.38-2.18a15.33,15.33,0,0,0,3.59-4.82L299.88,90a30.49,30.49,0,0,1-3.83,5.34,20.74,20.74,0,0,1-6.67,4.91A24,24,0,0,1,278.79,102.31ZM267.36,72.15h21.93A9.39,9.39,0,0,0,286,65.63a11.2,11.2,0,0,0-7.52-2.46,11.31,11.31,0,0,0-7.66,2.46A10.55,10.55,0,0,0,267.36,72.15Z"/><path class="cls-2" d="M334.28,102.31a27.36,27.36,0,0,1-12.57-2.84,21.24,21.24,0,0,1-8.79-8.22,24.88,24.88,0,0,1-3.22-13V76.78a24.86,24.86,0,0,1,3.22-13,21.24,21.24,0,0,1,8.79-8.22,29.26,29.26,0,0,1,25.15,0,21.36,21.36,0,0,1,8.79,8.22,24.85,24.85,0,0,1,3.21,13V78.3a24.88,24.88,0,0,1-3.21,13,21.36,21.36,0,0,1-8.79,8.22A27.37,27.37,0,0,1,334.28,102.31Zm0-10.59a12.38,12.38,0,0,0,9.08-3.55Q346.95,84.63,347,78v-.94q0-6.61-3.55-10.17a13.45,13.45,0,0,0-18.19,0q-3.6,3.55-3.59,10.17V78q0,6.61,3.59,10.16A12.35,12.35,0,0,0,334.28,91.72Z"/><path class="cls-2" d="M392.42,102.31a31.54,31.54,0,0,1-13.52-2.75,21.47,21.47,0,0,1-9.17-7.84,22.07,22.07,0,0,1-3.31-12.29V76.78h12.29v2.65q0,6,3.69,8.93c2.46,2,5.79,3,10,3s7.48-.85,9.59-2.55a8,8,0,0,0,3.17-6.52,6.34,6.34,0,0,0-1.56-4.45A11.37,11.37,0,0,0,399.08,75a58.59,58.59,0,0,0-7.23-2l-2.17-.47A55,55,0,0,1,378,68.7a18.44,18.44,0,0,1-7.47-6.1,17,17,0,0,1-2.6-9.83,18.19,18.19,0,0,1,2.89-10.35A18.49,18.49,0,0,1,379,35.8a30.41,30.41,0,0,1,12.33-2.31A31.22,31.22,0,0,1,403.9,35.9a19.55,19.55,0,0,1,8.7,7.18,21.22,21.22,0,0,1,3.17,12v2.84H403.48V55a11.27,11.27,0,0,0-1.47-6.1,8.57,8.57,0,0,0-4.2-3.4,17.78,17.78,0,0,0-6.53-1.09q-5.67,0-8.36,2.13a7,7,0,0,0-2.7,5.81,6.73,6.73,0,0,0,1.28,4.16,9.44,9.44,0,0,0,3.83,2.84,32.91,32.91,0,0,0,6.52,2l2.18.48a61.84,61.84,0,0,1,12.33,3.87A20.69,20.69,0,0,1,414.54,72a16.06,16.06,0,0,1,2.93,9.93,18.69,18.69,0,0,1-3.07,10.63,20.59,20.59,0,0,1-8.7,7.19A31.46,31.46,0,0,1,392.42,102.31Z"/><path class="cls-2" d="M445.07,101a10.19,10.19,0,0,1-7.52-2.88,10.41,10.41,0,0,1-2.88-7.7V63.93H423V54.1h11.72V39.54h11.91V54.1h12.86v9.83H446.58V88.32c0,1.89.89,2.83,2.65,2.83h9.07V101Z"/><path class="cls-2" d="M470.22,101V54.1h11.72v5.29h1.7a7.45,7.45,0,0,1,3.45-4.16,11.53,11.53,0,0,1,5.62-1.32h5.67V64.49h-5.86a11.43,11.43,0,0,0-7.47,2.41c-1.95,1.61-2.92,4.09-2.92,7.42V101Z"/><path class="cls-2" d="M521.07,102.31a22.17,22.17,0,0,1-9-1.75,14.65,14.65,0,0,1-6.29-5.11,14,14,0,0,1-2.31-8.17,13.66,13.66,0,0,1,2.31-8.09,14.16,14.16,0,0,1,6.43-4.91,25.11,25.11,0,0,1,9.41-1.66h12.85V70a7.44,7.44,0,0,0-2.08-5.44c-1.38-1.42-3.59-2.13-6.61-2.13s-5.17.68-6.62,2a9.66,9.66,0,0,0-2.84,5.24l-11-3.68A19,19,0,0,1,509,59.44a17.92,17.92,0,0,1,6.71-4.82A25.47,25.47,0,0,1,526,52.77q9.25,0,14.65,4.63T546,70.83V88.32c0,1.89.88,2.83,2.64,2.83h3.78V101h-7.93a9.36,9.36,0,0,1-5.77-1.7,5.4,5.4,0,0,1-2.27-4.54v-.09h-1.8a12.23,12.23,0,0,1-1.7,3,11.11,11.11,0,0,1-4.16,3.26A17.61,17.61,0,0,1,521.07,102.31Zm2.08-9.65a12,12,0,0,0,8.18-2.78,9.42,9.42,0,0,0,3.16-7.43v-.94h-12a8.45,8.45,0,0,0-5.2,1.42,4.67,4.67,0,0,0-1.89,4,5.09,5.09,0,0,0,2,4.16A9,9,0,0,0,523.15,92.66Z"/><path class="cls-2" d="M561.15,119.89V54.1h11.72v5.67h1.7a14.64,14.64,0,0,1,5-4.87q3.4-2.13,9.74-2.13a20.28,20.28,0,0,1,18.24,11,26.87,26.87,0,0,1,2.93,13V78.3a26.87,26.87,0,0,1-2.93,13,20.28,20.28,0,0,1-18.24,11,22.17,22.17,0,0,1-7.14-1,13.48,13.48,0,0,1-4.63-2.55,15.71,15.71,0,0,1-2.79-3.17h-1.7v24.3Zm24.58-28a12.62,12.62,0,0,0,9.21-3.55q3.64-3.54,3.64-10.35v-.94q0-6.81-3.68-10.35a13.62,13.62,0,0,0-18.34,0q-3.69,3.54-3.69,10.35V78q0,6.81,3.69,10.35A12.68,12.68,0,0,0,585.73,91.91Z"/><path class="cls-2" d="M639.42,101l17.39-66.17h21.74L696,101H683.09L679.5,86.42H655.87L652.28,101ZM658.8,74.89h17.77l-8-32.23h-1.7Z"/><path class="cls-2" d="M723.17,102.31a20.62,20.62,0,0,1-10.44-2.79,20.34,20.34,0,0,1-7.8-8.18,26.87,26.87,0,0,1-2.93-13V76.78a26.87,26.87,0,0,1,2.93-13,20.28,20.28,0,0,1,18.24-11,21.89,21.89,0,0,1,7.14,1,14.54,14.54,0,0,1,4.68,2.5,11.85,11.85,0,0,1,2.74,3.21h1.7V34.81h11.91V101H739.62V95.31h-1.7a15.49,15.49,0,0,1-5,4.82Q729.6,102.31,723.17,102.31Zm3.59-10.4a12.67,12.67,0,0,0,9.17-3.55q3.69-3.54,3.69-10.35v-.94q0-6.81-3.64-10.35a13.67,13.67,0,0,0-18.38,0q-3.69,3.54-3.69,10.35V78q0,6.81,3.69,10.35A12.66,12.66,0,0,0,726.76,91.91Z"/><path class="cls-2" d="M764.57,101V54.1h11.72v5.1H778a10.83,10.83,0,0,1,4.06-4.11,14,14,0,0,1,7.47-1.75,14.77,14.77,0,0,1,8,1.94,13.13,13.13,0,0,1,4.63,5h1.7a13.86,13.86,0,0,1,4.54-5q2.92-2,8.31-2a16.88,16.88,0,0,1,7.9,1.84,13.83,13.83,0,0,1,5.67,5.58,18.77,18.77,0,0,1,2.13,9.41V101H820.54V71c0-2.59-.67-4.52-2-5.82A7.65,7.65,0,0,0,813,63.27a7.81,7.81,0,0,0-6.28,2.59c-1.49,1.74-2.22,4.21-2.22,7.42V101H792.55V71c0-2.59-.66-4.52-2-5.82A7.65,7.65,0,0,0,785,63.27a7.84,7.84,0,0,0-6.29,2.59c-1.47,1.74-2.22,4.21-2.22,7.42V101Z"/><path class="cls-2" d="M851.26,48.61a7.64,7.64,0,0,1-5.44-2.08,7.14,7.14,0,0,1-2.22-5.48,7.16,7.16,0,0,1,2.22-5.48,8.21,8.21,0,0,1,10.92,0,7.23,7.23,0,0,1,2.17,5.48,7.22,7.22,0,0,1-2.17,5.48A7.6,7.6,0,0,1,851.26,48.61Zm-6,52.37V54.1h11.91V101Z"/><path class="cls-2" d="M870.44,101V54.1h11.73v6.14h1.7a12.3,12.3,0,0,1,4.25-4.68q3.12-2.22,9.45-2.22a18.17,18.17,0,0,1,9.6,2.5,17.1,17.1,0,0,1,6.38,6.91A22.06,22.06,0,0,1,915.82,73v28H903.91V74q0-5.3-2.6-7.94t-7.42-2.65A10.44,10.44,0,0,0,885.38,67q-3,3.65-3,10.16V101Z"/></g></g></svg>